<!--?xml version="1.0" standalone="no"?-->
              <svg id="sw-js-blob-svg" viewBox="0 0 100 100" xmlns="http://www.w3.org/2000/svg" version="1.1">
                    <defs> 
                        <linearGradient id="sw-gradient" x1="0" x2="1" y1="1" y2="0">
                            <stop id="stop1" stop-color="rgba(248, 117, 55, 1)" offset="0%"></stop>
                            <stop id="stop2" stop-color="rgba(68, 36, 169, 1)" offset="100%"></stop>
                        </linearGradient>
                    </defs>
                <path fill="url(#sw-gradient)" d="M25.5,-30.7C32.1,-24.9,35.8,-15.9,35.5,-7.7C35.2,0.4,30.8,7.9,26.6,15.5C22.4,23.2,18.3,31.2,11.2,36C4.1,40.8,-6,42.5,-15.2,39.9C-24.5,37.4,-32.8,30.6,-36.4,22.1C-40,13.6,-38.9,3.5,-36.7,-6.1C-34.6,-15.7,-31.5,-24.8,-25.2,-30.6C-18.9,-36.5,-9.5,-39.1,0,-39.1C9.5,-39.1,18.9,-36.5,25.5,-30.7Z" width="100%" height="100%" transform="translate(50 50)" stroke-width="0" style="transition: all 0.3s ease 0s;"></path>
              </svg>