<svg width="150" height="150" viewBox="0 0 150 150" fill="none" xmlns="http://www.w3.org/2000/svg">
<path d="M59.5291 73.4356C58.914 75.9571 56.4045 77.851 53.4096 77.851C52.6112 77.851 51.9639 78.431 51.9639 79.1469C51.9639 79.8627 52.6112 80.4428 53.4096 80.4428C57.9926 80.4428 61.7994 77.4092 62.4633 73.4646C65.2693 73.1927 67.8596 72.072 69.8648 70.2375C70.4236 69.7262 70.4142 68.9057 69.8437 68.4049C69.2735 67.9044 68.3581 67.9123 67.7992 68.4236C66.0259 70.046 63.6541 70.9395 61.1205 70.9395C55.9652 70.9395 51.7711 67.1802 51.7711 62.5594C51.7711 61.8436 51.1238 61.2635 50.3253 61.2635C49.5268 61.2635 48.8795 61.8436 48.8795 62.5594C48.8795 68.1257 53.529 72.7337 59.5291 73.4356Z" fill="white"/>
<path d="M65.6506 84.676C65.6506 83.9602 65.0033 83.3801 64.2048 83.3801C57.4551 83.3801 51.9638 88.3021 51.9638 94.3521C51.9638 94.4146 51.9664 94.4773 51.9675 94.5401C51.4299 94.4751 50.8824 94.4385 50.3253 94.4385C49.5268 94.4385 48.8795 95.0185 48.8795 95.7344C48.8795 96.4502 49.5268 97.0303 50.3253 97.0303C55.4806 97.0303 59.6747 100.79 59.6747 105.41C59.6747 106.126 60.322 106.706 61.1205 106.706C61.9189 106.706 62.5662 106.126 62.5662 105.41C62.5662 100.812 59.3928 96.8684 54.9073 95.239C54.873 94.9454 54.8554 94.6484 54.8554 94.3521C54.8554 89.7312 59.0495 85.9719 64.2048 85.9719C65.0033 85.9719 65.6506 85.3919 65.6506 84.676Z" fill="white"/>
<path d="M115 73.6177C115 70.6674 113.685 67.8715 111.361 65.8154C111.729 64.76 111.916 63.6683 111.916 62.5594C111.916 57.2248 107.645 52.7695 102.008 51.7898C102.439 50.8272 102.663 49.7953 102.663 48.7365C102.663 45.3573 100.372 42.4493 97.1097 41.1925C91.6745 37.3124 85.73 35 81.1687 35C78.6332 35 76.3847 36.1176 75 37.8309C73.6153 36.1176 71.3668 35 68.8313 35C64.27 35 58.3255 37.3124 52.8903 41.1925C49.628 42.4493 47.3373 45.3573 47.3373 48.7365C47.3373 49.7953 47.5608 50.8272 47.9916 51.7898C42.3546 52.7695 38.0843 57.2248 38.0843 62.5594C38.0843 63.6683 38.2704 64.7598 38.6386 65.8154C36.3147 67.8715 35 70.6674 35 73.6177C35 75.9241 35.7998 78.0654 37.1615 79.8337C35.7464 81.6673 35 83.8062 35 86.0583C35 90.0476 37.4264 93.7027 41.2681 95.63C41.202 96.1228 41.1687 96.62 41.1687 97.1166C41.1687 102.498 45.0848 107.256 50.7667 108.877C53.2383 112.668 57.7402 115 62.6626 115C68.0593 115 72.7386 112.204 75 108.145C77.2614 112.204 81.9407 115 87.3373 115C92.2598 115 96.7617 112.668 99.2332 108.877C104.915 107.255 108.831 102.498 108.831 97.1166C108.831 96.62 108.798 96.1228 108.732 95.63C112.574 93.7027 115 90.0476 115 86.0583C115 83.8062 114.254 81.6673 112.838 79.8337C114.2 78.0654 115 75.9241 115 73.6177ZM62.6626 112.408C58.6089 112.408 54.915 110.405 53.0224 107.18C52.8348 106.861 52.5075 106.626 52.1187 106.532C47.374 105.388 44.0602 101.516 44.0602 97.1166C44.0602 96.4583 44.1343 95.799 44.2802 95.1565C44.4155 94.561 44.0707 93.9609 43.4509 93.7138C40.0737 92.3681 37.8916 89.363 37.8916 86.0583C37.8916 84.5552 38.3265 83.1185 39.1563 81.846C41.3146 83.5515 44.1443 84.5896 47.241 84.5896C48.0394 84.5896 48.6867 84.0096 48.6867 83.2937C48.6867 82.5779 48.0394 81.9978 47.241 81.9978C42.0857 81.9978 37.8916 78.2385 37.8916 73.6177C37.8916 71.1303 39.116 68.7859 41.2512 67.1864C41.7331 66.8253 41.8999 66.2266 41.6637 65.705C41.2072 64.6966 40.9759 63.6383 40.9759 62.5594C40.9759 57.9386 45.17 54.1793 50.3253 54.1793C55.4806 54.1793 59.6747 57.9386 59.6747 62.5594C59.6747 63.2752 60.322 63.8553 61.1205 63.8553C61.9189 63.8553 62.5663 63.2752 62.5663 62.5594C62.5663 56.7465 57.496 51.9775 51.1116 51.6125C50.5329 50.7455 50.2289 49.7596 50.2289 48.7365C50.2289 46.4265 51.7934 44.4384 54.0223 43.5773C54.1084 43.5543 54.1929 43.5242 54.2744 43.4862C54.9649 43.2509 55.7127 43.121 56.494 43.121C58.9146 43.121 61.0756 44.3341 62.1337 46.2873C62.4826 46.9312 63.3478 47.1997 64.0658 46.8868C64.7841 46.5743 65.0837 45.799 64.7347 45.1552C63.5268 42.9257 61.2408 41.3233 58.6081 40.7557C62.2981 38.7375 65.9309 37.5918 68.8313 37.5918C71.4355 37.5918 73.5542 39.4907 73.5542 41.8251V58.5941C72.2551 57.6704 70.6145 57.1166 68.8313 57.1166C68.0329 57.1166 67.3855 57.6967 67.3855 58.4125C67.3855 59.1284 68.0329 59.7084 68.8313 59.7084C71.4355 59.7084 73.5542 61.6073 73.5542 63.9417V95.0914C71.7566 93.0126 69.2225 91.4437 66.2414 90.7258C65.4706 90.5407 64.6773 90.9499 64.4701 91.641C64.2628 92.3324 64.7201 93.0432 65.4912 93.2288C70.2386 94.3721 73.5542 98.2444 73.5542 102.646C73.5542 108.029 68.6682 112.408 62.6626 112.408ZM106.549 93.714C105.929 93.961 105.584 94.561 105.72 95.1567C105.866 95.7991 105.94 96.4585 105.94 97.1168C105.94 101.516 102.626 105.388 97.8813 106.532C97.4925 106.626 97.165 106.861 96.9776 107.181C95.085 110.405 91.3911 112.408 87.3373 112.408C81.3318 112.408 76.4458 108.029 76.4458 102.646C76.4458 102.281 76.4269 101.92 76.3916 101.562C76.4259 101.451 76.4458 101.335 76.4458 101.215V58.4125C76.4458 56.0782 78.5645 54.1793 81.1687 54.1793C81.9671 54.1793 82.6145 53.5992 82.6145 52.8834C82.6145 52.1675 81.9671 51.5875 81.1687 51.5875C79.3855 51.5875 77.7449 52.1413 76.4458 53.065V41.8251C76.4458 39.4907 78.5645 37.5918 81.1687 37.5918C84.0691 37.5918 87.7019 38.7375 91.3919 40.7557C88.7592 41.3231 86.4732 42.9257 85.2653 45.1552C84.9163 45.7991 85.2159 46.5744 85.9342 46.8868C86.6524 47.1996 87.5174 46.9312 87.8663 46.2873C88.9244 44.3341 91.0854 43.121 93.506 43.121C94.2873 43.121 95.0353 43.2509 95.7256 43.4862C95.8069 43.5242 95.8914 43.5541 95.9772 43.5771C98.2064 44.4383 99.7711 46.4263 99.7711 48.7365C99.7711 49.7596 99.4671 50.7455 98.8884 51.6125C92.504 51.9775 87.4337 56.7465 87.4337 62.5594C87.4337 63.2752 88.0811 63.8553 88.8795 63.8553C89.678 63.8553 90.3253 63.2752 90.3253 62.5594C90.3253 57.9386 94.5194 54.1793 99.6747 54.1793C104.83 54.1793 109.024 57.9386 109.024 62.5594C109.024 63.6383 108.793 64.6966 108.336 65.705C108.1 66.2268 108.267 66.8253 108.749 67.1864C110.884 68.7859 112.108 71.1303 112.108 73.6177C112.108 78.2385 107.914 81.9978 102.759 81.9978C101.961 81.9978 101.313 82.5779 101.313 83.2937C101.313 84.0096 101.961 84.5896 102.759 84.5896C105.856 84.5896 108.685 83.5515 110.844 81.846C111.674 83.1185 112.108 84.5552 112.108 86.0583C112.108 89.363 109.926 92.3681 106.549 93.714Z" fill="white"/>
<path d="M99.6747 76.4686C96.6798 76.4686 94.1703 74.5747 93.5552 72.0532C99.5554 71.3514 104.205 66.7433 104.205 61.177C104.205 60.4612 103.557 59.8811 102.759 59.8811C101.961 59.8811 101.313 60.4612 101.313 61.177C101.313 65.7978 97.1191 69.5572 91.9638 69.5572C89.4303 69.5572 87.0584 68.6637 85.2851 67.0412C84.7265 66.5301 83.811 66.5216 83.2406 67.0226C82.6702 67.5235 82.6607 68.3438 83.2196 68.8551C85.2248 70.6896 87.815 71.8103 90.621 72.0822C91.2849 76.0268 95.0917 79.0604 99.6747 79.0604C100.473 79.0604 101.12 78.4803 101.12 77.7645C101.12 77.0486 100.473 76.4686 99.6747 76.4686Z" fill="white"/>
<path d="M95.0482 91.6739C94.4911 91.6739 93.9436 91.7106 93.406 91.7755C93.4071 91.7128 93.4096 91.6501 93.4096 91.5875C93.4096 85.5376 87.9184 80.6156 81.1687 80.6156C80.3702 80.6156 79.7229 81.1957 79.7229 81.9115C79.7229 82.6274 80.3702 83.2074 81.1687 83.2074C86.324 83.2074 90.5181 86.9667 90.5181 91.5875C90.5181 91.8837 90.5005 92.1809 90.4662 92.4744C85.9806 94.1038 82.8072 98.0478 82.8072 102.646C82.8072 103.362 83.4546 103.942 84.253 103.942C85.0515 103.942 85.6988 103.362 85.6988 102.646C85.6988 98.025 89.8929 94.2657 95.0482 94.2657C95.8467 94.2657 96.494 93.6857 96.494 92.9698C96.494 92.254 95.8467 91.6739 95.0482 91.6739Z" fill="white"/>
<circle cx="75" cy="75" r="56.25" fill="white" fill-opacity="0.23"/>
<circle cx="75" cy="75" r="75" fill="white" fill-opacity="0.05"/>
<circle cx="75" cy="75" r="63.75" fill="white" fill-opacity="0.14"/>
<circle cx="74.25" cy="75" r="71.25" fill="white" fill-opacity="0.14"/>
</svg>
